<svg width="46" height="46" viewBox="0 0 46 46" fill="none" xmlns="http://www.w3.org/2000/svg">
<path fill-rule="evenodd" clip-rule="evenodd" d="M22.8832 0.604126H23.1165C26.9457 0.604126 29.979 0.604126 32.3519 0.922876C34.7936 1.25204 36.7707 1.94371 38.3311 3.50204C39.8894 5.06246 40.5811 7.03954 40.9103 9.48121C41.1248 11.0729 41.1936 12.9604 41.2165 15.1875H41.7498C43.7623 15.1875 45.3957 16.8208 45.3957 18.8333V20.9166C45.3957 22.0625 44.854 23.1458 43.9373 23.8333L41.2228 25.8687C41.2082 28.4354 41.1478 30.577 40.9103 32.352C40.5811 34.7937 39.8894 36.7708 38.3311 38.3312C37.9353 38.727 37.5123 39.0666 37.0623 39.3583V41.75C37.0623 42.7169 36.6782 43.6442 35.9945 44.328C35.3108 45.0117 34.3834 45.3958 33.4165 45.3958H30.2915C29.3246 45.3958 28.3972 45.0117 27.7135 44.328C27.0298 43.6442 26.6457 42.7169 26.6457 41.75V41.2166C25.5519 41.2291 24.379 41.2291 23.1165 41.2291H22.8832C21.6207 41.2291 20.4457 41.2291 19.354 41.2166V41.75C19.354 42.7169 18.9699 43.6442 18.2862 44.328C17.6024 45.0117 16.6751 45.3958 15.7082 45.3958H12.5832C11.6162 45.3958 10.6889 45.0117 10.0052 44.328C9.32145 43.6442 8.93734 42.7169 8.93734 41.75V39.3583C8.47956 39.0614 8.0543 38.7171 7.66859 38.3312C6.11025 36.7708 5.41859 34.7937 5.08942 32.352C4.85192 30.577 4.7915 28.4354 4.77692 25.8687L2.06234 23.8333C1.14567 23.1458 0.604004 22.0625 0.604004 20.9166V18.8333C0.604004 16.8208 2.23734 15.1875 4.24984 15.1875H4.78109C4.80609 12.9604 4.87484 11.0729 5.08942 9.48121C5.41859 7.03954 6.11025 5.06246 7.66859 3.50204C9.229 1.94371 11.2061 1.25204 13.6478 0.922876C16.0228 0.604126 19.054 0.604126 22.8832 0.604126ZM4.77067 18.3125H4.24984C4.1117 18.3125 3.97923 18.3673 3.88155 18.465C3.78388 18.5627 3.729 18.6952 3.729 18.8333V20.9166C3.729 20.9975 3.74783 21.0772 3.78399 21.1496C3.82015 21.2219 3.87265 21.2848 3.93734 21.3333L4.77067 21.9583V18.7166V18.3125ZM7.90817 26.6458C7.929 28.8 7.99567 30.5166 8.18734 31.9375C8.46859 34.0312 8.99776 35.2395 9.879 36.1208C10.7603 37.002 11.9686 37.5312 14.0644 37.8125C16.2061 38.1 19.0269 38.1041 22.9998 38.1041C26.9728 38.1041 29.7957 38.1 31.9373 37.8125C34.0311 37.5312 35.2394 37.002 36.1207 36.1208C37.0019 35.2395 37.5311 34.0312 37.8123 31.9354C38.004 30.5187 38.0686 28.8 38.0915 26.6458H7.90817ZM38.104 23.5208H7.89567V18.8333C7.89567 14.9104 7.89984 12.1104 8.17692 9.97913H37.8228C38.0998 12.1104 38.104 14.9104 38.104 18.8333V23V23.5208ZM41.229 21.9583L42.0623 21.3333C42.127 21.2848 42.1795 21.2219 42.2157 21.1496C42.2518 21.0772 42.2707 20.9975 42.2707 20.9166V18.8333C42.2707 18.6952 42.2158 18.5627 42.1181 18.465C42.0205 18.3673 41.888 18.3125 41.7498 18.3125H41.229V18.7166V21.9583ZM36.9603 6.85413C36.7398 6.43324 36.4568 6.04829 36.1207 5.71246C35.2394 4.83121 34.0311 4.30204 31.9353 4.02079C29.7936 3.73329 26.9728 3.72913 22.9998 3.72913C19.0269 3.72913 16.2061 3.73329 14.0623 4.02079C11.9686 4.30204 10.7603 4.83121 9.879 5.71246C9.54315 6.04848 9.26008 6.43339 9.03942 6.85413H36.9603ZM12.0623 40.625V41.75C12.0623 42.0375 12.2957 42.2708 12.5832 42.2708H15.7082C15.8463 42.2708 15.9788 42.2159 16.0765 42.1182C16.1741 42.0206 16.229 41.8881 16.229 41.75V41.1333C15.3659 41.0945 14.5047 41.0201 13.6478 40.9104C13.1151 40.8401 12.5861 40.7448 12.0623 40.625ZM29.7707 41.1333V41.75C29.7707 42.0375 30.004 42.2708 30.2915 42.2708H33.4165C33.5546 42.2708 33.6871 42.2159 33.7848 42.1182C33.8825 42.0206 33.9373 41.8881 33.9373 41.75V40.625C33.4137 40.7454 32.8847 40.8407 32.3519 40.9104C31.4949 41.0201 30.6338 41.0945 29.7707 41.1333ZM11.0207 31.3333C11.0207 30.9189 11.1853 30.5215 11.4783 30.2284C11.7713 29.9354 12.1688 29.7708 12.5832 29.7708H15.7082C16.1226 29.7708 16.52 29.9354 16.813 30.2284C17.1061 30.5215 17.2707 30.9189 17.2707 31.3333C17.2707 31.7477 17.1061 32.1451 16.813 32.4382C16.52 32.7312 16.1226 32.8958 15.7082 32.8958H12.5832C12.1688 32.8958 11.7713 32.7312 11.4783 32.4382C11.1853 32.1451 11.0207 31.7477 11.0207 31.3333ZM28.729 31.3333C28.729 30.9189 28.8936 30.5215 29.1867 30.2284C29.4797 29.9354 29.8771 29.7708 30.2915 29.7708H33.4165C33.8309 29.7708 34.2283 29.9354 34.5214 30.2284C34.8144 30.5215 34.979 30.9189 34.979 31.3333C34.979 31.7477 34.8144 32.1451 34.5214 32.4382C34.2283 32.7312 33.8309 32.8958 33.4165 32.8958H30.2915C29.8771 32.8958 29.4797 32.7312 29.1867 32.4382C28.8936 32.1451 28.729 31.7477 28.729 31.3333Z" fill="black"/>
</svg>
