<svg width="50" height="50" viewBox="0 0 50 50" fill="none" xmlns="http://www.w3.org/2000/svg">
<path d="M41.2082 19.6667L37.3749 9.25004C37.1329 8.53345 36.674 7.90986 36.0619 7.46566C35.4497 7.02147 34.7145 6.77866 33.9582 6.77087H16.0415C15.2953 6.77255 14.5675 7.00318 13.9565 7.43163C13.3455 7.86007 12.8807 8.46569 12.6249 9.16671L8.79155 19.5834C8.17641 19.8778 7.65557 20.3379 7.28754 20.912C6.91951 21.4861 6.71889 22.1515 6.70821 22.8334V32.2084C6.69625 32.8178 6.83904 33.4203 7.12323 33.9595C7.40742 34.4988 7.82373 34.9571 8.33321 35.2917C8.33321 35.2917 8.33321 35.4167 8.33321 35.4167V39.5834C8.33321 40.1359 8.55271 40.6658 8.94341 41.0565C9.33411 41.4472 9.86401 41.6667 10.4165 41.6667H12.4999C13.0524 41.6667 13.5823 41.4472 13.973 41.0565C14.3637 40.6658 14.5832 40.1359 14.5832 39.5834V35.9375H35.4165V39.5834C35.4165 40.1359 35.636 40.6658 36.0267 41.0565C36.4174 41.4472 36.9473 41.6667 37.4999 41.6667H39.5832C40.1358 41.6667 40.6657 41.4472 41.0564 41.0565C41.4471 40.6658 41.6665 40.1359 41.6665 39.5834V35.2917C42.1564 34.96 42.5571 34.5128 42.8332 33.9896C43.1094 33.4664 43.2524 32.8833 43.2499 32.2917V22.9167C43.243 22.2392 43.0486 21.5769 42.6882 21.0032C42.3279 20.4295 41.8156 19.9669 41.2082 19.6667ZM40.104 32.2917C40.104 32.4298 40.0492 32.5623 39.9515 32.66C39.8538 32.7577 39.7214 32.8125 39.5832 32.8125H10.4165C10.2784 32.8125 10.1459 32.7577 10.0483 32.66C9.95059 32.5623 9.89571 32.4298 9.89571 32.2917V22.9167C9.89571 22.7786 9.95059 22.6461 10.0483 22.5484C10.1459 22.4507 10.2784 22.3959 10.4165 22.3959H39.5832C39.7214 22.3959 39.8538 22.4507 39.9515 22.5484C40.0492 22.6461 40.104 22.7786 40.104 22.9167V32.2917ZM15.5624 10.2292C15.5998 10.1321 15.6655 10.0485 15.7509 9.98911C15.8363 9.9297 15.9375 9.89722 16.0415 9.89587H33.9582C34.0622 9.89722 34.1635 9.9297 34.2489 9.98911C34.3343 10.0485 34.3999 10.1321 34.4374 10.2292L37.3541 18.2292H12.6457L15.5624 10.2292Z" fill="black"/>
<path d="M16.6665 30.7291C18.3924 30.7291 19.7915 29.33 19.7915 27.6041C19.7915 25.8782 18.3924 24.4791 16.6665 24.4791C14.9406 24.4791 13.5415 25.8782 13.5415 27.6041C13.5415 29.33 14.9406 30.7291 16.6665 30.7291Z" fill="black"/>
<path d="M33.3335 30.7291C35.0594 30.7291 36.4585 29.33 36.4585 27.6041C36.4585 25.8782 35.0594 24.4791 33.3335 24.4791C31.6076 24.4791 30.2085 25.8782 30.2085 27.6041C30.2085 29.33 31.6076 30.7291 33.3335 30.7291Z" fill="black"/>
</svg>
